<?xml version="1.0" encoding="UTF-8" standalone="no"?>
<!-- Created with Inkscape (http://www.inkscape.org/) -->

<svg
   width="210mm"
   height="230.38611mm"
   viewBox="0 0 210 230.38611"
   version="1.1"
   id="svg1"
   xml:space="preserve"
   inkscape:version="1.3.2 (1:1.3.2+202311252150+091e20ef0f)"
   sodipodi:docname="rlish.svg"
   xmlns:inkscape="http://www.inkscape.org/namespaces/inkscape"
   xmlns:sodipodi="http://sodipodi.sourceforge.net/DTD/sodipodi-0.dtd"
   xmlns="http://www.w3.org/2000/svg"
   xmlns:svg="http://www.w3.org/2000/svg"><sodipodi:namedview
     id="namedview1"
     pagecolor="#ffffff"
     bordercolor="#000000"
     borderopacity="0.25"
     inkscape:showpageshadow="2"
     inkscape:pageopacity="0.0"
     inkscape:pagecheckerboard="0"
     inkscape:deskcolor="#d1d1d1"
     inkscape:document-units="mm"
     inkscape:zoom="1.0507202"
     inkscape:cx="322.63585"
     inkscape:cy="405.4362"
     inkscape:window-width="1850"
     inkscape:window-height="1016"
     inkscape:window-x="70"
     inkscape:window-y="27"
     inkscape:window-maximized="1"
     inkscape:current-layer="layer1" /><defs
     id="defs1" /><g
     inkscape:label="Layer 1"
     inkscape:groupmode="layer"
     id="layer1"
     transform="translate(0,-21.147009)"><path
       style="fill:#00ff00"
       d="m 75.166966,231.26739 c -3.510354,-0.94405 -6.856996,-3.65354 -8.592867,-6.95691 -1.872817,-3.56398 -1.771583,-0.81445 -1.693565,-45.99739 l 0.07026,-40.68688 0.840548,-3.43959 c 1.731179,-7.0841 4.02713,-12.45241 8.539924,-19.96771 5.612964,-9.34746 7.211513,-12.61001 9.402807,-19.190621 2.203195,-6.61635 3.011301,-11.85777 3.22888,-20.94269 l 0.153051,-6.390601 -0.803446,-0.415478 c -2.126747,-1.099784 -3.683254,-4.130862 -3.384896,-6.591607 0.09192,-0.758104 0.252745,-4.831184 0.357394,-9.051288 0.156299,-6.302989 0.269005,-7.847209 0.631264,-8.649126 0.716435,-1.585939 2.448065,-3.247877 4.252328,-4.081186 l 1.652978,-0.763437 15.081254,-0.08177 c 9.39629,-0.05095 15.85298,0.02156 17.12853,0.19234 3.43851,0.460384 5.63034,1.972121 6.91706,4.770781 0.50634,1.101334 0.56889,1.870022 0.73308,9.009275 0.0987,4.292865 0.26043,8.118991 0.35932,8.502504 0.27792,1.077749 -0.34524,3.514095 -1.20097,4.695404 -0.42463,0.586173 -1.25051,1.33902 -1.83531,1.672993 l -1.06326,0.607224 6.9e-4,4.630204 c 0.001,9.84189 1.00143,16.07791 3.85126,24.01754 1.72156,4.796269 3.80777,8.995129 7.78564,15.669959 1.90996,3.20491 4.17698,7.28421 5.03781,9.06511 1.79315,3.7097 3.86085,9.77287 4.85964,14.25008 l 0.68588,3.07457 -0.005,40.3171 c -0.004,34.60149 -0.0602,40.57966 -0.39678,42.16918 -1.10596,5.22281 -5.49019,9.62019 -10.65801,10.68996 -0.97162,0.20114 -10.47574,0.2849 -30.95624,0.27283 -24.935391,-0.0147 -29.776948,-0.0773 -30.979659,-0.40077 z m 61.401654,-7.33148 c 1.76902,-0.86872 2.94411,-2.11942 3.89395,-4.14451 0.64687,-1.37914 0.69351,-1.75161 0.77632,-6.20037 0.0806,-4.32783 0.0504,-4.71862 -0.35237,-4.56406 -0.24226,0.093 -0.78792,0.16902 -1.21258,0.16902 h -0.77212 v 3.79441 c 0,5.37327 -0.61489,7.07431 -3.13492,8.67247 l -1.20201,0.76229 h -27.6326 c -21.097742,0 -27.890154,-0.077 -28.721638,-0.3254 -0.626157,-0.18709 -1.559523,-0.79519 -2.195989,-1.43072 -1.57995,-1.57763 -1.93575,-2.99009 -1.93575,-7.68461 0,-3.03804 -0.07206,-3.78844 -0.363802,-3.78844 -0.200091,0 -0.745561,-0.0763 -1.212155,-0.16967 l -0.848353,-0.16967 0.09825,4.86603 c 0.08605,4.2617 0.167632,5.01727 0.656906,6.08388 1.052667,2.2948 3.217249,4.2174 5.309099,4.71559 0.553377,0.13179 13.42191,0.21734 29.168382,0.1939 l 28.17813,-0.0419 z m -34.16533,-4.90205 c 1.80142,-1.80142 1.74247,-3.71929 -0.16918,-5.50418 l -1.1677,-1.09027 v -3.23845 -3.23844 l 3.10885,0.18425 c 2.84342,0.16851 10.4856,-0.158 14.48594,-0.61891 1.76906,-0.20383 2.51354,-0.12577 2.51354,0.26357 0,0.14343 -0.11906,0.18721 -0.26458,0.0973 -0.14552,-0.0899 -0.26458,-0.0473 -0.26458,0.0946 0,0.14198 0.14882,0.3182 0.33072,0.3916 0.19758,0.0797 0.14432,0.14186 -0.13229,0.15434 -0.39283,0.0177 -0.46351,0.2916 -0.46629,1.80683 -0.003,1.75507 -0.0196,1.79649 -0.94604,2.39679 -3.08251,1.99727 -1.44571,6.66519 2.33715,6.66519 0.9946,0 2.14987,-0.68551 1.883,-1.11732 -0.10205,-0.16512 -0.0554,-0.21181 0.10976,-0.10976 0.51805,0.32017 1.11732,-0.94989 1.11732,-2.36799 0,-1.42958 -0.80946,-2.93998 -1.38498,-2.58428 -0.16874,0.10428 -0.20743,0.0513 -0.0952,-0.13027 0.11506,-0.18617 -0.0761,-0.40679 -0.48828,-0.5635 -0.58703,-0.22318 -0.67738,-0.41493 -0.67738,-1.43749 0,-0.64897 -0.13469,-1.51512 -0.2993,-1.92477 -0.56509,-1.40626 -0.46017,-1.91942 0.4229,-2.06851 0.44134,-0.0745 2.70744,-0.43372 5.03577,-0.79824 3.63905,-0.56974 11.43152,-1.96762 13.29531,-2.38504 l 0.59531,-0.13333 v -22.23195 -22.23195 l -0.99218,0.1695 c -3.08596,0.52717 -6.30477,1.24529 -7.90326,1.76324 -1.0011,0.32438 -1.93924,0.5716 -2.08476,0.54938 -0.14552,-0.0222 -2.18938,-0.6948 -4.54191,-1.49463 -7.41856,-2.52223 -11.66052,-3.20036 -20.06434,-3.20751 -7.859048,-0.007 -12.651968,0.80855 -20.185562,3.43342 l -3.516813,1.22533 -1.642562,-0.56849 c -1.53412,-0.53095 -4.935672,-1.30581 -7.531048,-1.71553 l -1.125986,-0.17775 0.06765,22.30468 0.06765,22.30468 1.719792,0.32267 c 0.945885,0.17747 3.684323,0.69962 6.085416,1.16032 2.401094,0.46071 4.841875,0.88836 5.423958,0.95033 0.582084,0.062 2.249485,0.28358 3.705337,0.49246 1.455852,0.20888 4.283584,0.52759 6.283854,0.70826 l 3.63685,0.32848 v 3.36495 3.36495 l -0.89787,0.55491 c -1.63739,1.01196 -2.1984,3.21513 -1.28453,5.0445 0.5808,1.16262 1.92035,1.85113 3.602594,1.85167 1.13976,3.6e-4 1.40407,-0.11577 2.29794,-1.00964 z m -3.394678,-1.5185 c -1.13663,-0.79613 -0.47107,-2.76312 0.93495,-2.76312 0.525138,0 1.652018,1.11541 1.652018,1.63521 0,0.36912 -1.25363,1.53979 -1.648898,1.53979 -0.19251,0 -0.61464,-0.18534 -0.93807,-0.41188 z m 21.570818,-2.27689 c -0.70703,-0.25823 -0.84764,-0.57969 -0.73348,-1.67685 0.14865,-1.42862 2.22466,-2.02207 3.03358,-0.86717 0.58044,0.8287 0.51328,1.45127 -0.23755,2.20211 -0.70409,0.70409 -0.95639,0.74592 -2.06255,0.34191 z m 12.20229,3.9212 c 0.16207,-0.19529 0.20642,-0.44334 0.0985,-0.55122 -0.10788,-0.10787 -0.0175,-0.15645 0.20073,-0.10794 0.64232,0.14273 0.42935,-1.65206 -0.26251,-2.21229 -0.79651,-0.64497 -2.15608,-0.54104 -2.72109,0.20802 -0.43213,0.57288 -0.43176,0.60327 0.007,0.58339 0.25464,-0.0115 0.58203,0.01 0.72755,0.0478 0.55908,0.14527 0.92605,-0.01 0.92605,-0.39079 0,-0.22049 0.23518,-0.39688 0.52916,-0.39688 0.34526,0 0.52917,0.17639 0.52917,0.50753 0,0.27914 0.0685,0.72562 0.15227,0.99219 0.1422,0.45263 0.13259,0.45406 -0.14544,0.0216 -0.37318,-0.5804 -1.06516,-0.60498 -1.06516,-0.0378 0,0.27895 -0.1439,0.36996 -0.41838,0.26464 -0.2301,-0.0883 -0.67659,0.0327 -0.99218,0.26883 -0.43517,0.32563 -0.45862,0.39027 -0.0971,0.26756 0.28165,-0.0956 0.41061,-0.0548 0.31512,0.0997 -0.0889,0.14386 -0.0881,0.38062 0.002,0.52614 0.24038,0.38894 1.8717,0.32227 2.21427,-0.0905 z m -46.611449,-2.33459 c 0.186028,-0.15439 0.261616,-0.40468 0.167973,-0.5562 -0.09655,-0.15621 -0.04289,-0.19676 0.123937,-0.0937 0.16964,0.10485 0.460042,-0.13889 0.685919,-0.57568 0.45004,-0.87029 0.485852,-2.43384 0.05395,-2.35536 -0.159963,0.0291 -0.328311,-0.33623 -0.374105,-0.81178 -0.05689,-0.59073 -0.329281,-1.04651 -0.859896,-1.43881 -0.771289,-0.57024 -0.776633,-0.59286 -0.776633,-3.28695 0,-1.5231 -0.116031,-2.78446 -0.264583,-2.87627 -0.145521,-0.0899 -0.264584,-0.0374 -0.264584,0.11668 0,0.1541 -0.297656,0.28019 -0.661458,0.28019 -0.657999,0 -0.661458,0.0128 -0.661458,2.45338 v 2.45337 l -0.969501,0.52211 c -2.181409,1.17477 -2.548626,3.49937 -0.93196,5.89961 0.435355,0.64637 2.145131,1.0554 3.313907,0.79279 0.594144,-0.13349 1.232467,-0.36903 1.418495,-0.52342 z m -3.477397,-1.86713 c -0.560905,-0.8008 -0.517129,-1.58045 0.127596,-2.27248 1.058837,-1.13653 2.90011,-0.35433 2.90011,1.23202 0,1.52556 -2.166464,2.27006 -3.027706,1.04046 z m 54.753906,-63.42812 c 1.60064,-0.31683 3.11861,-0.63599 3.37327,-0.70924 0.42104,-0.12109 0.46302,-0.61142 0.46302,-5.40689 0,-7.48758 -0.92711,-12.07439 -3.80003,-18.80038 -1.33404,-3.12321 -4.59525,-8.97827 -6.09767,-10.94753 -1.70326,-2.23251 -3.49589,-2.79803 -5.21056,-1.64377 -1.13442,0.76365 -1.68105,1.85525 -1.65876,3.31247 0.0251,1.64272 0.99353,2.79214 2.81025,3.33557 0.41346,0.12367 0.46303,0.55124 0.46303,3.99397 0,3.4867 -0.0525,3.92649 -0.5489,4.5979 -0.60466,0.81785 -0.93106,2.54319 -0.6745,3.5654 0.24791,0.98776 1.40553,2.22518 2.25652,2.41209 1.01959,0.22394 1.0771,0.69345 1.08063,8.82233 0.002,5.2981 -0.0677,6.68223 -0.33428,6.61458 -0.18546,-0.0471 -1.95442,-0.61873 -3.93102,-1.2704 l -3.59382,-1.18486 -0.18908,-7.7384 c -0.104,-4.25612 -0.16137,-14.30032 -0.12749,-22.32045 l 0.0616,-14.58204 0.97913,-0.6181 c 2.69167,-1.69918 2.03302,-5.735571 -1.05687,-6.476821 -1.15348,-0.27672 -1.44128,-0.25533 -2.31254,0.17182 -2.67706,1.31249 -2.90105,4.984671 -0.38346,6.286571 l 0.77433,0.40042 0.20074,10.2619 c 0.19136,9.78194 0.035,33.85682 -0.22157,34.11338 -0.10297,0.10297 -3.42325,-0.41666 -5.40703,-0.8462 -0.56607,-0.12257 -0.59531,-0.25124 -0.59531,-2.61939 0,-2.46798 0.007,-2.49561 0.79774,-3.05852 2.16446,-1.54124 2.09786,-5.03991 -0.12365,-6.49551 l -0.67409,-0.44168 v -6.44255 c 0,-6.41404 0.003,-6.44391 0.59531,-6.74877 2.72402,-1.4012 3.29664,-4.64889 1.15173,-6.53215 -0.49027,-0.43046 -1.32233,-0.86351 -1.84901,-0.96231 -1.31419,-0.24654 -3.15104,0.58402 -3.85873,1.74479 -1.05313,1.72735 -0.49465,4.30118 1.16994,5.39187 l 0.67409,0.44168 v 6.40753 6.40753 l -0.97144,0.63964 c -1.46675,0.96577 -1.98307,1.8212 -1.98307,3.28548 0,1.46428 0.51632,2.31971 1.98307,3.28547 l 0.97144,0.63964 v 2.29318 2.29317 l -5.29166,-0.0224 -5.29166,-0.0224 0.008,-10.71562 c 0.007,-9.00294 0.0705,-10.79771 0.39687,-11.22921 0.58645,-0.77536 0.4684,-1.63409 -0.30868,-2.24534 -0.83307,-0.65529 -1.365548,-0.68903 -2.154408,-0.13649 -0.43604,0.30542 -0.58803,0.67752 -0.58803,1.4396 0,0.56524 0.11906,1.1013 0.26458,1.19123 0.42178,0.26068 0.3569,21.81005 -0.0661,21.96898 -0.1819,0.0683 -1.55112,0.34106 -3.0427,0.60607 l -2.71198,0.48183 v -5.18754 -5.18754 l 0.77432,-0.4574 c 2.42949,-1.43514 2.45154,-5.00897 0.0397,-6.43368 l -0.81401,-0.48085 0.002,-7.02056 0.002,-7.02056 1.06967,-0.61091 c 2.59582,-1.48252 2.81025,-4.69825 0.43413,-6.5106 -1.951737,-1.48867 -4.136128,-1.04941 -5.385817,1.08302 -0.564821,0.96379 -0.662512,1.40165 -0.557218,2.49746 0.107325,1.11696 0.302298,1.50671 1.223087,2.44492 l 1.095409,1.11614 v 6.92289 6.92288 l -0.871521,0.41356 c -2.469867,1.17203 -2.497507,5.51103 -0.04256,6.68171 l 0.914085,0.4359 v 5.36475 5.36476 l -1.12448,0.28315 c -1.164626,0.29326 -5.271934,1.6272 -6.085416,1.97637 -0.434777,0.18662 -0.463021,-0.26025 -0.463021,-7.32586 v -7.52461 l 0.992188,-0.64125 c 1.889225,-1.22101 2.14867,-3.85551 0.558093,-5.66708 -2.39373,-2.72631 -6.579543,-1.09417 -6.576375,2.56426 0.0013,1.44811 0.770516,2.73345 1.981575,3.31096 l 0.927853,0.44247 v 7.35932 c 0,4.04763 -0.06737,7.35933 -0.149705,7.35933 -0.08234,0 -1.302728,-0.2875 -2.711979,-0.63888 -1.409251,-0.35139 -2.889696,-0.71085 -3.289878,-0.79879 l -0.727605,-0.15991 0.0016,-3.50069 c 0.0032,-7.25791 1.354568,-12.46629 5.251723,-20.24146 1.438936,-2.8708 3.72171,-7.12464 5.072832,-9.45297 7.301645,-12.58263 9.445144,-19.906231 10.198544,-34.844981 0.1711,-3.3926 0.21013,-3.59059 0.61083,-3.09892 0.62713,0.76951 2.29684,1.26945 3.405,1.01952 1.19295,-0.26906 2.651604,-1.69004 2.977604,-2.90072 0.90085,-3.34548 -3.359234,-6.206667 -5.908544,-3.96834 l -0.89846,0.78885 0.0293,-2.700002 c 0.0244,-2.246384 -0.0398,-2.713896 -0.38216,-2.782707 -0.35898,-0.07215 -0.4516,0.889584 -0.72554,7.533549 -0.35374,8.57947 -0.73694,11.75512 -2.083595,17.26702 -1.786196,7.31096 -4.346991,13.787731 -7.743814,19.585681 -4.80998,8.21004 -6.024186,10.38783 -7.449541,13.36146 -1.839285,3.83719 -3.15661,7.73666 -4.061601,12.02293 -0.601102,2.84696 -0.675437,3.81007 -0.675437,8.75107 v 5.55204 h 0.632333 c 0.921397,0 5.237856,0.92669 7.805223,1.67569 2.048298,0.59756 2.291689,0.6176 3.149473,0.25919 2.211462,-0.92401 9.435549,-2.79083 12.737359,-3.29154 4.608344,-0.69885 11.417074,-0.92247 15.801194,-0.51896 4.66141,0.42902 10.35768,1.64 14.75176,3.13608 l 3.68046,1.25312 2.14053,-0.69767 c 1.17729,-0.38372 3.45015,-0.9569 5.05079,-1.27374 z m -5.42412,-8.60142 v -7.5867 l 0.92604,-0.87337 c 0.84719,-0.799 0.92604,-1.00136 0.92604,-2.37662 0,-0.84702 -0.18091,-1.85309 -0.41442,-2.30465 -0.4328,-0.83695 -2.14907,-1.80186 -3.2236,-1.81235 -0.58934,-0.006 -0.59529,-0.0437 -0.59325,-3.77612 l 0.002,-3.77031 0.70041,-0.3252 c 0.90433,-0.41987 0.85794,-0.48366 3.60385,4.95541 3.70861,7.34597 4.68426,11.08502 4.87813,18.69478 l 0.12913,5.06873 -1.54897,0.3104 c -1.77708,0.35611 -4.38448,0.9986 -4.98005,1.22714 -0.35831,0.1375 -0.40538,-0.72535 -0.40538,-7.43114 z m -20.72879,-4.06627 c -0.91511,-1.01119 -0.34021,-2.42656 0.98563,-2.42656 1.52193,0 2.30722,1.53173 1.26764,2.47253 -0.63901,0.5783 -1.70805,0.55649 -2.25327,-0.046 z m -20.6596,-4.16525 c -0.492035,-0.49203 -0.547807,-1.72761 -0.09827,-2.17714 0.174625,-0.17463 0.686594,-0.3175 1.137708,-0.3175 1.011178,0 1.455208,0.41404 1.455208,1.35693 0,0.88729 -0.624053,1.55348 -1.455208,1.55348 -0.343013,0 -0.810759,-0.18709 -1.039434,-0.41577 z M 80.54243,132.6076 c -0.566243,-0.86419 -0.197022,-2.03358 0.747495,-2.36745 0.971965,-0.34357 2.049405,0.39142 2.049405,1.39802 0,1.54024 -1.974475,2.22461 -2.7969,0.96943 z m 48.43155,0.0195 c -0.52463,-0.80068 -0.26916,-1.95866 0.51048,-2.31389 0.82119,-0.37415 1.95509,0.12673 2.1631,0.95552 0.41565,1.6561 -1.75567,2.75928 -2.67358,1.35837 z m -16.93939,-14.30349 c -0.75677,-0.75677 -0.80262,-1.13078 -0.23755,-1.93753 0.81433,-1.16263 2.76312,-0.42975 2.76312,1.03913 0,0.44444 -1.16568,1.54783 -1.63521,1.54783 -0.13251,0 -0.53317,-0.29224 -0.89036,-0.64943 z m 14.8697,-0.099 c -0.5783,-0.63901 -0.55649,-1.70804 0.046,-2.25326 0.56398,-0.5104 1.91511,-0.57892 2.37365,-0.12038 0.45287,0.45287 0.39257,1.95087 -0.0983,2.44172 -0.56139,0.5614 -1.78413,0.52553 -2.32134,-0.0681 z m -35.740854,-5.22358 c -0.909641,-0.90964 -0.27407,-2.75923 0.94815,-2.75923 0.682646,0 1.546496,0.93774 1.546496,1.67879 0,1.25036 -1.622161,1.95292 -2.494646,1.08044 z m 28.788514,-11.74504 c -0.67811,-0.28076 -0.98483,-1.323831 -0.64902,-2.207091 0.53572,-1.40904 2.99155,-1.03435 3.14024,0.47912 0.13614,1.385761 -1.15489,2.281261 -2.49122,1.727971 z M 96.833082,75.845969 c -1.05351,-1.05351 -0.49962,-2.64583 0.92034,-2.64583 0.95528,0 1.72549,0.73489 1.72549,1.64637 0,0.63153 -0.93164,1.52863 -1.5875,1.52863 -0.29104,0 -0.76729,-0.23813 -1.05833,-0.52917 z m 10.754258,54.405751 c 0.90757,-0.78066 0.96763,-2.27858 0.12722,-3.17315 -0.52305,-0.55676 -0.54996,-0.91695 -0.62088,-8.31266 l -0.0742,-7.73067 0.6993,1.6e-4 c 0.39024,8e-5 0.76945,-0.18266 0.85803,-0.41349 0.0873,-0.22751 0.28057,-0.33834 0.4295,-0.2463 0.14892,0.092 0.20226,0.27817 0.11854,0.41364 -0.38455,0.62223 1.04408,0.15484 1.87555,-0.61359 0.75529,-0.69803 0.9584,-1.10892 1.07902,-2.18282 0.12407,-1.10457 0.0463,-1.47166 -0.4713,-2.22413 -0.34093,-0.49567 -0.85801,-1.03145 -1.14905,-1.19062 -0.86556,-0.47339 -0.92951,-0.71037 -0.87277,-3.2341 l 0.0543,-2.415531 -1.37671,-1.58915 -1.37671,-1.58915 v -4.35338 -4.35337 l 0.66207,-0.30166 c 2.16774,-0.98769 2.2399,-5.26958 0.10804,-6.41052 -0.47354,-0.25343 -0.50552,-0.62989 -0.50552,-5.94978 v -5.67923 h -1.05834 -1.05833 v 5.53446 5.53446 l -0.98482,0.48481 c -2.27596,1.12042 -2.71323,4.65966 -0.77015,6.23362 0.31039,0.25142 0.7727,0.45978 1.02737,0.46302 0.4228,0.005 0.46312,0.40232 0.46424,4.56994 l 0.001,4.56406 0.72802,0.79375 c 2.17322,2.36943 2.17994,2.38416 2.17994,4.776011 0,2.20831 -0.005,2.2244 -0.80545,2.63838 -1.84579,0.95449 -2.43216,3.67827 -1.1869,5.51327 0.35942,0.52963 0.54504,0.96297 0.41249,0.96297 -0.13254,0 -0.32243,-0.13178 -0.42197,-0.29283 -0.49292,-0.79757 -0.63622,1.03599 -0.63995,8.1886 -0.004,7.3595 -0.0316,7.79848 -0.53322,8.4362 -1.73653,2.20765 0.96547,4.96878 3.08135,3.14878 z m -1.86347,-20.75957 c -0.075,-0.12127 0.0371,-0.22049 0.24897,-0.22049 0.21188,0 0.38524,0.0992 0.38524,0.22049 0,0.12127 -0.11204,0.22048 -0.24897,0.22048 -0.13693,0 -0.31029,-0.0992 -0.38524,-0.22048 z m 1.56062,-1.19303 c -0.46457,-1.11187 -0.27362,-1.8769 0.56367,-2.2584 0.94379,-0.43002 1.25598,-0.3736 1.9356,0.34983 0.4891,0.52062 0.57404,0.82506 0.4358,1.56195 -0.18432,0.98252 -0.54358,1.23097 -1.77996,1.23097 -0.6407,0 -0.85377,-0.16313 -1.15511,-0.88435 z m -2.58006,-23.478511 c -0.53888,-0.31387 -0.6338,-1.81886 -0.14552,-2.30714 0.47446,-0.47446 1.65777,-0.38312 2.15503,0.16635 1.23312,1.36258 -0.38535,3.08678 -2.00951,2.14079 z m -2.74842,33.551481 c 0.50207,-0.6754 0.5147,-0.80064 0.16019,-1.5875 -0.30879,-0.68537 -0.39993,-2.7372 -0.46106,-10.37925 -0.0669,-8.357911 -0.0232,-9.643181 0.3567,-10.489511 0.37426,-0.83387 0.3841,-1.0668 0.0726,-1.71979 -0.76355,-1.60072 -3.480208,-0.75704 -2.976118,0.92426 0.28272,0.94297 0.28696,20.818111 0.005,22.037031 -0.18815,0.81254 -0.13332,1.05193 0.35212,1.53738 0.755168,0.75517 1.789248,0.62123 2.490858,-0.32262 z m 13.49427,-24.899271 c 2.35345,-0.98333 2.71784,-3.83025 0.76572,-5.98248 -0.56723,-0.62537 -0.59751,-0.87039 -0.59751,-4.83519 0,-4.08617 0.0129,-4.18145 0.59532,-4.40785 0.32742,-0.12727 0.9525,-0.6084 1.38906,-1.06916 0.69614,-0.73473 0.79375,-1.02822 0.79375,-2.38656 0,-1.2869 -0.11186,-1.66852 -0.66146,-2.25672 -1.40331,-1.50187 -3.38529,-1.885878 -4.91597,-0.95247 -0.9236,0.56321 -1.70143,1.99358 -1.6928,3.11294 0.009,1.22283 0.9255,2.92345 1.82548,3.38885 l 0.81454,0.42121 v 3.95658 3.95658 l -1.03605,0.52855 c -2.91819,1.48875 -3.06468,5.00107 -0.26806,6.4271 1.09449,0.5581 1.83019,0.58238 2.98798,0.0986 z m -2.72764,-2.1903 c -0.36012,-0.45782 -0.49433,-0.89617 -0.38478,-1.25677 0.47488,-1.56318 2.04991,-1.98648 2.98206,-0.80144 0.52742,0.6705 0.52207,1.00414 -0.0347,2.16593 -0.42096,0.87837 -1.83362,0.81899 -2.56257,-0.10772 z m 1.38241,-15.17975 c -0.79887,-0.3181 -1.03947,-1.4106 -0.494,-2.2431 0.83414,-1.27306 2.80119,-0.5831 2.80119,0.98255 0,1.06185 -1.18299,1.70819 -2.30719,1.26055 z m 7.4952,-13.172758 c 0.85756,-0.361144 1.75483,-1.380056 2.05887,-2.337974 l 0.17752,-0.559324 -9.16704,-0.196428 c -8.82604,-0.18912 -25.509656,-0.01687 -25.509509,0.263381 4e-5,0.07474 7.2e-5,0.372134 7.2e-5,0.66088 0,0.789645 1.347042,2.138619 2.336594,2.339945 0.480575,0.09777 7.265425,0.177338 15.077443,0.17681 11.10718,-7.51e-4 14.38295,-0.07646 15.02605,-0.34729 z M 103.97683,55.20847 c 0.48465,-0.484658 0.52916,-0.881944 0.52916,-4.723372 0,-3.912175 0.0402,-4.254659 0.59745,-5.093229 0.3286,-0.494463 1.12773,-1.166914 1.77586,-1.494336 1.10713,-0.559308 1.50705,-0.595557 6.61244,-0.599364 3.05129,-0.0023 5.60807,-0.116514 5.83092,-0.260532 0.25915,-0.167474 -4.2199,-0.257886 -12.90694,-0.260531 -14.733728,-0.0045 -14.35029,-0.04603 -15.903727,1.723232 -1.084468,1.235141 -1.616414,2.448883 -1.616414,3.688176 0,1.138904 0.421978,1.231136 0.660665,0.144402 0.09545,-0.434576 0.510242,-1.029888 0.921762,-1.322917 0.668299,-0.47587 1.163536,-0.532778 4.636436,-0.532778 h 3.88822 l 0.89958,0.899583 0.899588,0.899583 v 3.033485 c 0,2.668265 0.066,3.117419 0.54837,3.730625 0.67092,0.852937 1.86528,0.929317 2.62663,0.167973 z"
       id="path1"
       sodipodi:nodetypes="csscsssscssssscssscsssccssssccsssccssssscsscsssssccsssscssscccsssssssccsscssssssssscccsssscscsscccssssscccsssssssssssssssssssssssssssssssscsscssssssssssscsssccsssscssssssssssscsscsscsssscsssscscscsssscccsssccccccssssscscccsscccssssscccsscccssscsscscssssccsssssssccssssssscsssssscsccccssscccssscsscccssccssssssssssssssssssssssssssssssssssssssscsccssssssssscccccssscccccsscccsscssscscccssscsssssssssscscccscsccsssssssscscccsssssssssssssssscsssssssssscssssssscccscs" /><path
       d="m 100.58428,196.7984 c -1.144392,-0.66655 -1.666682,-3.75105 -0.972382,-5.7427 0.522382,-1.49852 1.212792,-1.71616 4.837672,-1.52496 1.97954,0.10442 3.36168,0.0687 3.60153,-0.0929 0.72133,-0.48625 -0.0234,-0.68802 -2.53948,-0.68802 -2.37511,0 -2.5107,-0.0304 -2.65247,-0.59531 -0.46503,-1.85283 0.99311,-2.86723 3.79788,-2.64209 1.8341,0.14723 3.21607,0.81607 3.71234,1.79668 0.18009,0.35583 0.32918,1.42989 0.33133,2.38679 0.003,1.51248 -0.0818,1.82032 -0.65194,2.35594 -0.59205,0.5562 -0.98036,0.63146 -3.99239,0.77373 -3.09097,0.146 -3.37376,0.20357 -3.84208,0.78222 -0.35783,0.44214 -0.50552,1.04119 -0.50552,2.05052 0,1.47953 -0.19766,1.67994 -1.12448,1.14012 z m 4.77683,-9.53615 c 0.0974,-0.84009 -0.54816,-1.18195 -1.13115,-0.59897 -0.72969,0.7297 -0.44029,1.5062 0.51063,1.37008 0.3603,-0.0516 0.56683,-0.30823 0.62052,-0.77111 z"
       style="fill:#3a88ff;fill-opacity:1"
       id="path1-3"
       sodipodi:nodetypes="ssscsssscssssssssss" /><path
       d="m 104.49407,200.40294 c -1.33875,-0.58265 -1.6876,-1.32813 -1.6876,-3.60642 0,-2.76521 0.16223,-2.89256 3.68502,-2.89256 4.08179,0 4.98257,-0.59655 5.24335,-3.4725 0.1271,-1.40167 0.18229,-1.51174 0.63621,-1.26881 0.27337,0.1463 0.81624,0.74834 1.20636,1.33786 0.58621,0.88582 0.71185,1.37949 0.72388,2.84436 0.0226,2.74681 -1.21759,4.23678 -3.09496,3.71841 -1.36084,-0.37575 -6.07593,-0.21337 -6.21765,0.21412 -0.0835,0.25179 0.6181,0.33073 2.9395,0.33073 1.67703,0 3.11949,0.11382 3.20547,0.25294 0.086,0.13911 -0.0123,0.65645 -0.21834,1.14964 -0.27285,0.653 -0.67208,1.01571 -1.46898,1.33456 -1.31335,0.5255 -3.81054,0.55458 -4.95226,0.0577 z m 5.143,-1.40348 c -0.10341,-0.89591 -0.86302,-1.10156 -1.26873,-0.34349 -0.37852,0.70726 -0.14543,1.06883 0.68903,1.06883 0.5672,0 0.65128,-0.10521 0.5797,-0.72534 z"
       style="fill:#ffdd55;fill-opacity:1"
       id="path1-26" /><path
       d="m 131.87073,181.88421 c -0.065,-0.065 -0.61219,-0.14729 -1.21604,-0.18292 l -1.09789,-0.0648 -0.0848,-3.7589 c -0.0736,-3.2611 -0.15203,-3.83305 -0.59225,-4.31875 -0.55874,-0.61647 -1.28333,-0.54399 -2.06895,0.20693 -0.3816,0.36474 -0.47574,1.04567 -0.55404,4.00726 l -0.0943,3.56784 -1.00824,0.0846 c -0.55453,0.0465 -1.28748,0.0145 -1.62877,-0.0712 l -0.62053,-0.15574 v -8.32935 -8.32933 l 0.59531,0.003 c 0.32742,0.002 1.04179,0.0767 1.5875,0.16691 l 0.99219,0.164 v 3.1483 3.1483 l 0.79527,-0.58797 c 0.57223,-0.42307 1.16615,-0.58796 2.11771,-0.58796 1.62659,0 2.54371,0.60504 3.37087,2.22383 0.54531,1.0672 0.59531,1.52703 0.59531,5.47463 0,4.00258 -0.0345,4.30956 -0.48507,4.30956 -0.26679,0 -0.53823,-0.0532 -0.6032,-0.11814 z m -17.43427,-0.64349 c -1.71702,-0.56048 -3.70246,-1.90809 -3.70246,-2.51304 0,-0.14961 0.37338,-0.65724 0.82972,-1.12807 l 0.82972,-0.85605 1.03646,0.83292 c 0.85735,0.68898 1.27406,0.83474 2.41143,0.84346 1.29305,0.01 1.37496,-0.0289 1.37496,-0.65093 0,-0.66236 -0.60027,-1.04781 -4.12051,-2.64584 -2.64452,-1.20048 -2.70951,-4.81577 -0.11282,-6.27551 1.89263,-1.06395 4.95486,-0.69539 6.84565,0.82392 0.47784,0.38396 0.46622,0.43542 -0.32368,1.43275 l -0.81933,1.03449 -1.32324,-0.65487 c -1.46484,-0.72494 -2.51129,-0.6607 -2.72785,0.16746 -0.19676,0.75239 0.0117,0.91738 2.32785,1.8428 2.51076,1.00315 3.4236,1.76967 3.86602,3.24635 0.29607,0.98818 0.26795,1.19397 -0.31267,2.28845 -0.4756,0.89652 -0.92627,1.33015 -1.77053,1.70361 -1.311,0.57992 -3.35154,0.82054 -4.30872,0.5081 z m -17.61306,-8.35929 -0.02,-8.34159 h 1.80592 1.80592 v 7.0482 7.04822 l 1.6005,-0.14513 1.6005,-0.14513 -0.0791,1.36516 -0.0791,1.36515 -3.30729,0.0734 -3.30729,0.0734 z m 8.45776,7.9504 c -0.0625,-0.16288 -0.0816,-3.032 -0.0424,-6.37584 l 0.0713,-6.07969 1.65365,-0.0788 1.65364,-0.0788 v 6.50295 6.50296 l -1.61127,-0.0483 c -0.90141,-0.0271 -1.66134,-0.17881 -1.72491,-0.34448 z m 0.42577,-14.17532 c -1.07622,-1.07623 -0.35588,-2.91354 1.13948,-2.90637 0.99251,0.005 1.31914,0.18766 1.73037,0.96897 0.87724,1.66672 -1.5213,3.28594 -2.86985,1.9374 z"
       style="fill:#00ff00;stroke:none"
       id="path1-6"
       sodipodi:nodetypes="sscsssscccccccscccsssssssssscscssssscssssssscccccccccccccssccccccssscss" /><path
       d="m 81.816699,173.37 v -8.63203 l 3.9026,0.003 c 3.561261,0.002 4.021901,0.0581 5.26656,0.63765 1.8327,0.85332 2.737081,2.341 2.737081,4.5024 0,1.86644 -0.53402,3.06047 -1.88653,4.21818 l -1.0242,0.87668 1.40086,2.22346 c 0.77047,1.22289 1.62011,2.55457 1.88808,2.9593 0.26797,0.40472 0.44067,0.78241 0.38377,0.83931 -0.0569,0.0569 -0.93623,0.1337 -1.95407,0.17067 l -1.85061,0.0672 -1.50339,-2.36173 c -2.22883,-3.50138 -2.13141,-3.39578 -2.94462,-3.19168 l -0.71137,0.17854 v 2.9054 2.90537 H 84.4956 c -0.56389,0 -1.39733,0.0744 -1.85208,0.16537 l -0.82682,0.16536 z m 7.40833,-1.47075 c 0.94209,-0.66509 1.02878,-2.09603 0.18632,-3.07545 -0.53739,-0.62475 -0.88725,-0.75719 -2.26307,-0.85671 l -1.62742,-0.11772 v 2.36867 2.36868 l 1.52136,-0.11025 c 0.866651,-0.0628 1.806,-0.31121 2.18281,-0.57722 z"
       style="fill:#00ff00;stroke:none"
       id="path1-2" /></g></svg>
