<?xml version="1.0" encoding="UTF-8" standalone="no"?>
<svg
   width="594"
   height="600"
   version="1.1"
   id="svg200"
   sodipodi:docname="rlish_bg(6).svg"
   inkscape:version="1.3.2 (1:1.3.2+202311252150+091e20ef0f)"
   xml:space="preserve"
   xmlns:inkscape="http://www.inkscape.org/namespaces/inkscape"
   xmlns:sodipodi="http://sodipodi.sourceforge.net/DTD/sodipodi-0.dtd"
   xmlns="http://www.w3.org/2000/svg"
   xmlns:svg="http://www.w3.org/2000/svg"><defs
     id="defs200" /><sodipodi:namedview
     id="namedview200"
     pagecolor="#ffffff"
     bordercolor="#000000"
     borderopacity="0.25"
     inkscape:showpageshadow="2"
     inkscape:pageopacity="0.0"
     inkscape:pagecheckerboard="0"
     inkscape:deskcolor="#d1d1d1"
     inkscape:zoom="0.96166522"
     inkscape:cx="375.39051"
     inkscape:cy="309.87915"
     inkscape:window-width="1850"
     inkscape:window-height="1016"
     inkscape:window-x="70"
     inkscape:window-y="27"
     inkscape:window-maximized="1"
     inkscape:current-layer="svg200" /><path
     d="  M 273 64 C 300 61, 325, 66, 348, 70  C 371 76, 390, 85, 404, 100  C 421 113, 422, 130, 421, 149  C 425 161, 414, 171, 408, 177  C 418 191, 429, 203, 435, 216  C 435 309, 436, 400, 435, 490  C 417 513, 393, 523, 372, 540  C 354 546, 335, 549, 317, 551  C 281 556, 252, 549, 220, 542  C 199 528, 177, 514, 159, 499  C 148 407, 154, 310, 151, 218  C 160 202, 170, 190, 179, 179  C 159 166, 169, 143, 166, 125  C 172 102, 191, 93, 205, 82  C 226 72, 248, 67, 271, 65"
     fill="rgb(145,176,139)"
     id="path1"
     style="fill:#1a1a1a" /><path
     d="  M 274 68 C 248 71, 223, 75, 201, 89  C 176 101, 173, 138, 201, 149  C 220 162, 240, 169, 261, 172  C 295 162, 342, 166, 373, 144  C 390 135, 402, 121, 399, 104  C 386 86, 368, 80, 351, 74  C 325 68, 302, 66, 275, 68"
     fill="rgb(253,248,228)"
     id="path2" /><path
     d="  M 412 297 C 381 319, 345, 328, 307, 330  C 257 331, 213, 323, 177, 296  C 177 324, 177, 360, 176, 387  C 207 411, 244, 418, 283, 420  C 283 414, 283, 409, 284, 404  C 270 403, 257, 401, 245, 398  C 245 379, 244, 363, 245, 347  C 252 348, 258, 347, 261, 350  C 261 363, 262, 374, 262, 385  C 269 386, 276, 387, 283, 386  C 284 369, 282, 349, 285, 332  C 313 332, 338, 329, 360, 323  C 381 318, 400, 309, 415, 297"
     fill="rgb(212,215,203)"
     id="path3"
     style="fill:#fffde9;fill-opacity:1" /><path
     d="  M 366 323 C 341 330, 315, 334, 286, 332  C 281 367, 290, 402, 281, 423  C 309 422, 340, 419, 368, 411  C 365 384, 366, 350, 369, 323"
     fill="rgb(182,164,147)"
     id="path4"
     style="fill:#fde9ce;fill-opacity:1" /><path
     d="  M 344 419 C 336 421, 328, 422, 319, 421  C 326 425, 311, 442, 326, 443  C 314 445, 310, 459, 304, 465  C 300 464, 303, 459, 301, 458  C 296 457, 293, 457, 291, 458  L 291 456  L 293 454 C 299 449, 308, 446, 315, 442  C 314 434, 309, 430, 306, 425  C 295 423, 283, 424, 273, 422  C 267 427, 291, 423, 298, 427  C 298 437, 296, 446, 292, 454  C 284 455, 276, 456, 269, 455  C 268 445, 270, 438, 271, 431  C 269 438, 268, 445, 269, 453  C 269 457, 272, 454, 272, 456  L 271 458  L 268 459 C 265 459, 261, 452, 262, 448  C 253 460, 227, 466, 236, 482  C 229 482, 224, 475, 220, 475  C 227 483, 236, 488, 239, 495  C 260 490, 255, 470, 269, 460  L 271 459  L 272 457 C 281 458, 290, 457, 298, 457  C 299 468, 304, 479, 302, 490  C 290 505, 276, 497, 266, 490  C 267 496, 273, 497, 277, 500  C 278 509, 275, 516, 272, 522  C 264 529, 255, 520, 246, 521  C 254 523, 261, 526, 269, 527  L 272 526 L 273 525  L 273 522 C 281 508, 278, 501, 299, 495  C 296 501, 290, 506, 286, 512  C 296 515, 302, 526, 311, 528  C 338 512, 319, 505, 341, 486  C 342 490, 337, 495, 336, 500  C 340 507, 347, 509, 351, 515  C 362 510, 360, 493, 368, 488  C 375 491, 367, 500, 372, 507  C 411 479, 405, 440, 350, 481  C 345 452, 347, 430, 346, 417"
     fill="rgb(83,135,58)"
     id="path5" /><path
     d="  M 409 147 C 383 171, 350, 178, 317, 183  C 283 187, 252, 184, 223, 175  C 227 191, 226, 200, 209, 201  C 235 203, 277, 215, 318, 216  C 322 200, 348, 210, 361, 199  C 371 197, 364, 209, 372, 209  C 368 191, 398, 191, 407, 173  C 408 166, 409, 157, 408, 149"
     fill="rgb(14,60,88)"
     id="path6" /><path
     d="  M 366 222 C 340 262, 332, 227, 297, 253  C 288 249, 278, 245, 269, 239  C 268 243, 285, 250, 292, 255  C 286 271, 265, 277, 275, 296  C 247 286, 235, 270, 228, 254  C 225 262, 229, 264, 228, 270  C 206 266, 211, 277, 189, 278  C 190 286, 189, 292, 188, 298  C 200 293, 219, 279, 227, 291  L 229 287 L 231 285 L 230 288  L 227 290 C 225 286, 208, 286, 215, 274  C 221 270, 225, 274, 230, 271  C 252 274, 247, 296, 275, 301  C 266 308, 263, 316, 262, 325  C 270 310, 279, 299, 296, 284  C 310 287, 322, 294, 324, 307  C 334 298, 347, 287, 358, 287  C 365 293, 371, 296, 376, 299  C 371 307, 365, 313, 359, 318  C 368 315, 375, 314, 380, 310  C 379 297, 361, 286, 350, 287  C 349 275, 348, 264, 349, 254  C 364 242, 352, 261, 350, 266  C 359 289, 380, 285, 390, 301  C 423 287, 387, 261, 381, 289  C 370 271, 396, 276, 386, 261  C 377 269, 371, 279, 375, 288  C 363 283, 360, 274, 352, 269  C 353 253, 369, 243, 372, 230"
     fill="rgb(72,125,73)"
     id="path7" /><path
     d="  M 407 179 C 404 180, 403, 181, 404, 184  C 408 199, 419, 210, 427, 222  C 427 305, 428, 387, 428, 468  C 419 497, 385, 505, 366, 524  C 351 530, 338, 531, 325, 534  C 291 540, 259, 533, 231, 527  C 203 512, 183, 496, 164, 476  C 165 389, 161, 299, 166, 221  C 170 217, 183, 201, 186, 184  C 172 181, 166, 203, 156, 210  C 152 296, 153, 382, 152, 470  C 165 497, 197, 507, 218, 526  C 261 539, 306, 544, 348, 531  C 378 523, 401, 502, 426, 487  L 426 483 L 428 481 L 427 484  L 427 485 C 408 501, 428, 477, 427, 470  C 429 387, 428, 306, 429, 226  C 421 210, 409, 199, 402, 186  C 416 185, 432, 218, 435, 222  C 426 202, 417, 192, 408, 179"
     fill="rgb(209,242,237)"
     id="path8" /><path
     d="  M 152 480 C 163 516, 197, 518, 217, 540  C 242 546, 266, 550, 289, 552  C 318 551, 342, 547, 366, 540  C 391 524, 414, 513, 433, 492  C 424 486, 386, 521, 365, 530  C 336 538, 310, 543, 281, 541  C 261 539, 243, 535, 225, 532  C 201 514, 173, 503, 156, 481"
     fill="rgb(17,134,172)"
     id="path9" /><path
     d="  M 403 178 C 392 192, 380, 213, 360, 214  C 367 224, 381, 233, 367, 242  C 381 242, 384, 241, 392, 250  C 385 257, 390, 265, 390, 274  C 415 268, 374, 236, 403, 230  C 403 247, 404, 254, 420, 257  C 403 267, 403, 280, 405, 298  C 414 285, 420, 302, 418, 309  C 423 279, 426, 244, 420, 218  C 412 221, 407, 227, 401, 230  C 400 221, 408, 216, 412, 212  C 409 201, 393, 190, 401, 180"
     fill="rgb(81,194,171)"
     id="path10" /><path
     d="  M 404 300 C 421 290, 401, 315, 368, 322  C 360 350, 387, 326, 380, 354  C 404 355, 383, 320, 409, 324  C 409 343, 409, 359, 409, 376  C 383 402, 404, 348, 381, 371  C 390 394, 361, 388, 371, 409  C 386 405, 401, 399, 415, 390  C 415 357, 416, 323, 415, 295"
     fill="rgb(206,227,222)"
     id="path11"
     style="fill:#d1e2de;fill-opacity:1" /><path
     d="  M 189 327 C 203 334, 223, 335, 232, 350  C 240 371, 218, 380, 239, 395  C 220 398, 214, 387, 210, 375  C 206 382, 202, 395, 188, 380  C 189 363, 189, 347, 189, 331"
     fill="rgb(97,116,130)"
     id="path12" /><path
     d="  M 320 235 C 329 247, 332, 249, 348, 252  C 346 266, 349, 273, 347, 286  C 339 288, 333, 285, 326, 283  C 323 289, 327, 293, 325, 298  C 319 295, 318, 292, 316, 289  C 309 279, 307, 269, 299, 262  C 305 270, 308, 279, 313, 288  C 308 285, 296, 285, 293, 282  C 294 272, 293, 266, 294, 258  C 303 254, 310, 245, 317, 239"
     fill="rgb(124,160,94)"
     id="path13" /><path
     d="  M 182 179 C 192 193, 167, 209, 162, 222  C 160 306, 161, 387, 161, 469  C 162 484, 178, 493, 186, 500  C 172 495, 157, 484, 155, 469  C 155 385, 154, 303, 154, 218  C 162 206, 170, 194, 179, 183"
     fill="rgb(235,250,248)"
     id="path14" /><path
     d="  M 405 178 C 391 188, 410, 200, 413, 209  C 409 216, 401, 221, 400, 227  C 408 228, 415, 212, 421, 218  C 428 245, 423, 278, 425, 305  C 413 316, 419, 299, 415, 296  C 417 322, 416, 357, 417, 387  C 410 395, 404, 397, 397, 400  C 404 397, 410, 396, 415, 390  C 420 375, 410, 305, 424, 331  C 423 386, 425, 429, 423, 478  C 402 496, 381, 505, 363, 520  C 338 528, 313, 530, 289, 532  C 263 529, 241, 526, 220, 517  C 202 498, 166, 492, 164, 463  C 169 491, 199, 503, 219, 521  C 255 533, 296, 540, 334, 531  C 370 528, 395, 501, 422, 483  C 429 398, 425, 310, 427, 225  C 420 208, 397, 196, 403, 178"
     fill="rgb(148,221,212)"
     id="path15" /><path
     d="  M 401 98 C 406 106, 412, 114, 409, 126  C 406 137, 398, 145, 390, 150  C 359 174, 310, 176, 278, 179  C 249 181, 217, 176, 190, 156  C 174 141, 179, 129, 178, 107  C 174 113, 173, 121, 169, 127  C 172 136, 177, 148, 189, 155  C 220 157, 196, 194, 219, 196  C 227 192, 221, 183, 222, 175  C 248 182, 276, 186, 303, 183  C 343 179, 379, 172, 408, 147  C 409 155, 409, 163, 409, 171  C 427 151, 419, 119, 402, 99"
     fill="rgb(59,104,135)"
     id="path16" /><path
     d="  M 380 410 C 369 415, 356, 416, 344, 420  C 345 440, 348, 451, 358, 474  C 367 474, 377, 454, 396, 461  C 408 467, 391, 470, 402, 474  C 395 480, 382, 488, 375, 507  C 366 501, 373, 493, 369, 487  C 362 495, 361, 506, 358, 516  C 348 514, 343, 508, 336, 505  C 334 497, 339, 491, 342, 486  C 321 507, 338, 510, 318, 527  C 353 527, 378, 507, 404, 488  C 403 484, 402, 480, 401, 477  C 402 465, 402, 456, 394, 451  C 383 458, 369, 463, 355, 458  C 353 448, 352, 441, 350, 434  C 363 425, 375, 417, 391, 421  C 389 416, 387, 411, 382, 409"
     fill="rgb(9,75,81)"
     id="path17" /><path
     d="  M 417 322 C 425 387, 388, 430, 409, 496  C 410 486, 422, 479, 423, 469  C 419 417, 428, 371, 421, 321"
     fill="rgb(84,194,176)"
     id="path18" /><path
     d="  M 400 103 C 404 127, 381, 143, 364, 150  C 333 171, 279, 158, 256, 173  C 291 177, 331, 175, 362, 162  C 378 156, 391, 150, 401, 137  C 409 127, 409, 113, 402, 105"
     fill="rgb(244,207,176)"
     id="path19" /><path
     d="  M 275 68 C 373 97, 207, 79, 212, 121  C 199 100, 219, 89, 231, 84  C 247 78, 260, 75, 275, 74"
     fill="rgb(250,215,184)"
     id="path20" /><path
     d="  M 335 347 C 366 334, 361, 371, 336, 359  C 342 365, 351, 364, 356, 368  C 363 374, 362, 383, 358, 389  C 348 401, 331, 402, 320, 396  C 318 377, 334, 385, 344, 384  C 339 378, 328, 380, 322, 373  C 317 367, 318, 361, 321, 357  C 326 351, 331, 348, 335, 346"
     fill="rgb(62,86,101)"
     id="path21" /><path
     d="  M 389 407 C 376 408, 391, 413, 392, 420  C 379 419, 365, 424, 355, 431  C 350 436, 354, 441, 353, 446  C 356 468, 386, 457, 391, 448  C 404 456, 403, 467, 402, 479  C 407 441, 382, 434, 407, 409  C 398 406, 394, 406, 390, 406"
     fill="rgb(62,129,57)"
     id="path22" /><path
     d="  M 404 181 C 404 197, 424, 209, 429, 223  C 424 314, 438, 410, 423, 494  C 428 484, 430, 474, 433, 465  C 434 380, 435, 307, 434, 225  C 429 208, 417, 197, 408, 183"
     fill="rgb(239,253,252)"
     id="path23" /><path
     d="  M 192 332 C 192 347, 192, 363, 191, 378  C 208 393, 195, 368, 206, 370  C 219 376, 216, 395, 231, 392  C 213 377, 239, 370, 230, 352  C 220 339, 205, 339, 194, 332"
     fill="rgb(65,88,108)"
     id="path24"
     style="fill:#1a1a1a" /><path
     d="  M 182 182 C 173 192, 163, 205, 156, 217  C 155 303, 156, 385, 155, 468  C 158 487, 177, 496, 189, 504  C 180 496, 162, 486, 160, 471  C 159 387, 160, 306, 160, 225  C 168 209, 184, 198, 184, 182"
     fill="rgb(244,253,251)"
     id="path25" /><path
     d="  M 211 196 C 203 219, 255, 210, 264, 230  C 298 210, 340, 244, 369, 205  C 359 208, 353, 202, 331, 209  C 324 211, 323, 219, 319, 223  C 277 210, 216, 209, 211, 200"
     fill="rgb(32,102,68)"
     id="path26" /><path
     d="  M 279 75 C 263 76, 248, 79, 234, 85  C 219 90, 200, 101, 207, 118  C 208 77, 364, 97, 280, 70"
     fill="rgb(250,211,180)"
     id="path27" /><path
     d="  M 272 459 C 268 460, 267, 463, 266, 466  C 272 453, 289, 461, 299, 458  C 296 473, 272, 481, 280, 494  C 272 491, 266, 487, 259, 485  C 254 478, 261, 474, 262, 469  C 255 480, 257, 492, 241, 494  C 236 488, 226, 483, 220, 478  C 223 472, 229, 482, 233, 482  C 235 477, 231, 474, 234, 471  C 227 471, 221, 464, 214, 462  C 211 468, 214, 467, 219, 476  L 220 478 L 221 478 L 221 480  L 220 482 C 214 486, 213, 494, 206, 496  C 215 516, 234, 497, 237, 508  C 234 505, 231, 498, 240, 496  C 246 492, 251, 490, 256, 487  C 263 493, 268, 500, 277, 501  C 275 509, 274, 516, 271, 521  C 261 527, 252, 516, 243, 521  C 251 517, 260, 525, 268, 525  L 271 525 L 272 524  L 272 522 C 274 516, 276, 510, 278, 504  L 278 502  L 277 500 C 272 498, 266, 496, 263, 490  C 275 495, 289, 505, 299, 489  C 303 480, 298, 470, 300, 461  C 292 458, 282, 459, 274, 458"
     fill="rgb(91,142,31)"
     id="path28" /><path
     d="  M 318 446 C 329 445, 340, 446, 349, 449  C 343 458, 337, 463, 330, 470  C 331 479, 334, 485, 335, 491  C 321 486, 307, 482, 305, 467  C 308 460, 313, 454, 316, 448"
     fill="rgb(157,179,50)"
     id="path31" /><path
     d="  M 303 466 C 308 474, 311, 486, 324, 488  C 319 490, 315, 488, 311, 488  C 315 488, 319, 491, 324, 490  C 326 493, 329, 490, 329, 492  C 327 504, 322, 513, 316, 522  C 304 519, 294, 519, 286, 513  C 301 497, 310, 489, 301, 469"
     fill="rgb(162,183,61)"
     id="path32" /><path
     d="  M 402 327 C 391 334, 403, 358, 380, 355  C 374 352, 383, 332, 369, 343  C 368 358, 368, 373, 369, 389  C 385 388, 369, 359, 394, 363  C 400 365, 391, 387, 404, 376  C 406 360, 406, 342, 405, 327"
     fill="rgb(8,51,82)"
     id="path33"
     style="fill:#1a1a1a" /><path
     d="  M 167 127 C 167 138, 167, 149, 167, 160  C 177 175, 190, 184, 205, 191  C 206 182, 206, 175, 206, 168  C 191 159, 173, 146, 169, 128"
     fill="rgb(18,59,90)"
     id="path34" /><path
     d="  M 338 349 C 333 351, 328, 352, 325, 357  C 313 379, 341, 373, 349, 380  C 340 396, 325, 376, 321, 393  C 332 400, 345, 398, 353, 390  C 358 385, 360, 378, 357, 373  C 350 365, 341, 368, 333, 365  C 344 363, 371, 348, 337, 348"
     fill="rgb(8,49,78)"
     id="path35"
     style="fill:#1a1a1a" /><path
     d="  M 380 422 C 401 420, 379, 445, 382, 454  C 373 459, 364, 457, 358, 458  C 355 449, 354, 442, 352, 435  C 361 428, 369, 425, 378, 423"
     fill="rgb(89,151,48)"
     id="path36" /><path
     d="  M 394 463 C 395 475, 377, 489, 375, 503  C 371 499, 376, 489, 369, 484  C 350 488, 359, 501, 357, 514  C 349 510, 343, 508, 338, 503  C 346 476, 371, 477, 390, 465"
     fill="rgb(96,158,47)"
     id="path37" /><path
     d="  M 257 488 C 240 494, 228, 502, 242, 520  C 251 515, 260, 525, 269, 523  C 273 516, 274, 509, 277, 504  C 267 501, 263, 493, 257, 489"
     fill="rgb(175,191,20)"
     id="path38" /><path
     d="  M 206 411 C 220 416, 232, 418, 226, 436  C 213 440, 206, 439, 194, 442  C 189 437, 189, 433, 187, 430  C 197 454, 191, 444, 186, 472  C 182 478, 176, 469, 171, 469  C 179 474, 190, 476, 184, 490  C 190 468, 206, 462, 200, 447  C 207 448, 213, 445, 219, 443  C 218 446, 216, 448, 213, 450  C 240 440, 221, 426, 241, 421  C 251 423, 257, 428, 265, 430  C 265 441, 255, 443, 249, 439  C 252 441, 256, 443, 259, 445  C 282 401, 218, 433, 215, 408"
     fill="rgb(38,99,62)"
     id="path40" /><path
     d="  M 382 424 C 372 425, 363, 428, 355, 433  C 355 441, 355, 449, 358, 455  C 364 456, 373, 457, 379, 456  C 379 445, 395, 426, 385, 423"
     fill="rgb(93,156,46)"
     id="path41" /><path
     d="  M 295 227 C 254 221, 272, 248, 296, 251  C 304 248, 309, 240, 318, 235  C 313 227, 301, 230, 294, 225"
     fill="rgb(168,185,10)"
     id="path42" /><path
     d="  M 393 464 C 374 477, 348, 476, 339, 500  C 344 507, 350, 509, 354, 514  C 355 499, 352, 488, 369, 481  C 376 487, 373, 497, 372, 503  C 378 490, 388, 479, 394, 466"
     fill="rgb(106,166,45)"
     id="path44" /><path
     d="  M 296 351 C 300 350, 306, 350, 310, 351  C 310 370, 311, 386, 310, 402  C 304 402, 299, 404, 296, 402  C 296 384, 295, 369, 295, 353"
     fill="rgb(60,86,101)"
     id="path46" /><path
     d="  M 295 287 C 284 289, 313, 319, 343, 317  C 348 309, 350, 300, 354, 291  C 344 296, 334, 300, 326, 308  C 319 301, 312, 289, 299, 288"
     fill="rgb(167,191,23)"
     id="path47" /><path
     d="  M 170 255 C 162 265, 165, 291, 183, 295  C 184 282, 189, 270, 191, 258  C 184 255, 178, 256, 171, 256"
     fill="rgb(243,227,90)"
     id="path49" /><path
     d="  M 171 212 C 180 224, 169, 221, 166, 234  C 174 236, 179, 229, 175, 224  C 212 235, 177, 254, 210, 263  C 199 248, 209, 262, 212, 251  C 227 251, 236, 258, 249, 259  C 222 250, 192, 234, 177, 211"
     fill="rgb(250,252,225)"
     id="path50" /><path
     d="  M 367 245 C 360 251, 355, 258, 352, 265  C 359 272, 365, 274, 371, 276  C 376 267, 386, 262, 386, 254  C 384 244, 370, 250, 370, 245"
     fill="rgb(196,200,23)"
     id="path51" /><path
     d="  M 324 250 C 317 254, 310, 257, 303, 261  C 308 270, 316, 273, 321, 279  C 335 265, 358, 249, 323, 250"
     fill="rgb(249,250,172)"
     id="path52" /><path
     d="  M 297 351 C 296 367, 297, 383, 296, 399  C 301 402, 304, 401, 308, 402  C 310 385, 310, 369, 309, 353  C 305 351, 303, 352, 300, 352"
     fill="rgb(34,68,89)"
     id="path53" /><path
     d="  M 296 352 C 300 350, 305, 352, 308, 351  C 310 369, 310, 385, 309, 400  C 304 402, 301, 401, 298, 402  C 296 384, 296, 369, 297, 355"
     fill="rgb(34,68,89)"
     id="path54" /><path
     d="  M 244 283 C 238 286, 232, 289, 225, 292  C 227 304, 230, 314, 233, 322  C 238 316, 246, 312, 251, 306  C 251 298, 247, 291, 245, 284"
     fill="rgb(249,251,162)"
     id="path55" /><path
     d="m 249,351 c -1,14 0,29 0,44 11,3 22,3 32,5 6,-17 -15,-5 -21,-12 -7,-12 5,-36 -9,-38"
     fill="rgb(38,63,85)"
     id="path56"
     style="fill:#1a1a1a"
     sodipodi:nodetypes="ccccc" /><path
     d="  M 299 283 C 279 299, 276, 305, 298, 283  C 310 289, 320, 297, 323, 309  C 333 299, 344, 295, 352, 288  C 352 299, 349, 309, 346, 318  C 339 321, 334, 317, 328, 316  C 333 318, 342, 320, 344, 322  C 357 322, 366, 313, 374, 302  C 369 296, 362, 291, 355, 287  C 344 295, 333, 298, 327, 308  C 322 296, 311, 288, 299, 286"
     fill="rgb(104,149,24)"
     id="path57" /><path
     d="  M 275 427 C 271 430, 272, 442, 270, 450  C 277 454, 283, 453, 288, 454  C 292 444, 296, 437, 298, 429  C 290 427, 283, 428, 278, 426"
     fill="rgb(167,205,37)"
     id="path58" /><path
     d="  M 272 460 C 259 472, 254, 485, 277, 483  C 284 476, 291, 470, 298, 462  C 290 461, 282, 461, 274, 461"
     fill="rgb(229,204,16)"
     id="path59" /><path
     d="  M 306 313 C 247 334, 326, 326, 341, 323  C 330 318, 319, 309, 303, 313"
     fill="rgb(27,99,62)"
     id="path60" /><path
     d="  M 348 254 C 340 265, 332, 272, 324, 282  C 316 278, 311, 274, 306, 269  C 311 278, 314, 288, 323, 296  C 325 292, 323, 288, 324, 283  C 332 284, 338, 287, 345, 287  C 349 274, 345, 267, 348, 257"
     fill="rgb(101,146,25)"
     id="path61" /><path
     d="  M 471 158 C 466 160, 462, 162, 457, 165  C 453 179, 462, 185, 472, 187  C 466 177, 479, 170, 489, 167  C 483 162, 478, 159, 473, 157"
     fill="rgb(249,246,231)"
     id="path62" /><path
     d="  M 168 381 C 168 394, 169, 410, 167, 424  C 172 431, 178, 442, 185, 444  C 176 438, 170, 449, 174, 467  C 170 445, 180, 449, 187, 449  C 162 434, 189, 414, 181, 394  C 175 406, 177, 398, 170, 380"
     fill="rgb(226,236,112)"
     id="path63" /><path
     d="  M 200 463 C 196 470, 193, 478, 189, 485  C 195 488, 199, 492, 204, 494  C 210 488, 213, 484, 217, 479  C 211 472, 212, 464, 202, 465"
     fill="rgb(249,249,152)"
     id="path64" /><path
     d="  M 282 228 C 286 226, 291, 228, 295, 227  C 299 235, 299, 242, 300, 249  C 294 249, 254, 236, 281, 227"
     fill="rgb(190,194,4)"
     id="path65" /><path
     d="  M 196 148 C 215 162, 180, 155, 223, 171  C 239 177, 259, 180, 279, 182  C 252 173, 221, 169, 197, 149"
     fill="rgb(175,181,194)"
     id="path66" /><path
     d="  M 297 354 C 302 367, 289, 399, 305, 401  C 303 385, 315, 356, 301, 352"
     fill="rgb(5,49,78)"
     id="path67"
     style="fill:#1a1a1a" /><path
     d="  M 216 215 C 199 232, 238, 241, 246, 243  C 249 238, 249, 235, 251, 231  C 232 213, 218, 232, 213, 219"
     fill="rgb(225,235,152)"
     id="path68" /><path
     d="  M 321 238 C 312 244, 305, 254, 295, 257  C 295 268, 294, 275, 294, 282  C 302 283, 307, 286, 312, 289  C 307 279, 304, 270, 298, 262  C 309 255, 317, 246, 329, 246  C 326 245, 323, 242, 322, 238"
     fill="rgb(11,74,79)"
     id="path69" /><path
     d="  M 357 250 C 349 252, 348, 258, 350, 266  C 349 273, 349, 279, 349, 285  C 363 285, 379, 299, 382, 311  C 393 285, 355, 292, 352, 266  C 351 261, 355, 257, 356, 252"
     fill="rgb(11,72,80)"
     id="path70" /><path
     d="  M 368 248 C 374 252, 380, 267, 373, 274  C 365 274, 358, 272, 353, 267  C 356 259, 358, 251, 366, 250"
     fill="rgb(219,209,25)"
     id="path71" /><path
     d="  M 268 244 C 261 248, 256, 258, 247, 256  C 255 260, 259, 250, 265, 246  C 269 256, 269, 266, 270, 276  C 234 253, 234, 259, 270, 282  C 278 272, 285, 263, 291, 259  C 283 253, 277, 248, 270, 245"
     fill="rgb(241,234,85)"
     id="path72" /><path
     d="  M 129 165 C 121 187, 97, 162, 98, 175  C 103 184, 111, 184, 115, 189  C 127 186, 137, 177, 132, 167"
     fill="rgb(241,208,176)"
     id="path73" /><path
     d="  M 358 217 C 347 228, 334, 219, 323, 228  C 305 228, 297, 217, 278, 220  C 274 223, 268, 232, 267, 231  C 283 220, 306, 228, 320, 231  C 311 241, 305, 247, 299, 254  C 288 248, 278, 244, 269, 238  C 262 244, 250, 242, 249, 249  C 259 253, 266, 244, 265, 238  C 278 244, 288, 248, 296, 255  C 305 245, 325, 235, 321, 231  C 335 229, 350, 222, 361, 218"
     fill="rgb(93,142,36)"
     id="path74" /><path
     d="  M 300 495 C 277 502, 282, 509, 272, 526  C 283 528, 294, 529, 305, 527  C 300 520, 292, 518, 285, 514  C 289 506, 294, 502, 297, 496"
     fill="rgb(8,70,82)"
     id="path75" /><path
     d="  M 187 401 C 187 407, 187, 413, 187, 420  C 193 417, 193, 406, 203, 409  C 209 414, 212, 420, 212, 426  C 208 434, 200, 438, 194, 441  C 190 435, 190, 435, 192, 440  C 206 438, 212, 439, 227, 436  C 231 418, 218, 418, 205, 410  C 197 401, 193, 413, 190, 418  C 188 413, 187, 406, 188, 400"
     fill="rgb(97,140,28)"
     id="path76" /><path
     d="  M 232 438 C 224 443, 219, 450, 211, 455  C 218 462, 225, 465, 231, 469  C 237 460, 232, 448, 232, 439"
     fill="rgb(249,250,161)"
     id="path77" /><path
     d="  M 285 228 C 253 232, 292, 247, 298, 251  C 298 242, 298, 236, 297, 230  C 292 229, 289, 228, 286, 229"
     fill="rgb(192,195,3)"
     id="path78" /><path
     d="  M 295 290 C 290 295, 284, 299, 279, 303  C 280 311, 283, 316, 285, 321  C 300 316, 301, 305, 296, 292"
     fill="rgb(248,251,173)"
     id="path79" /><path
     d="  M 111 380 C 104 399, 81, 371, 86, 393  C 91 398, 95, 400, 99, 403  C 111 399, 118, 392, 112, 382"
     fill="rgb(236,200,166)"
     id="path80" /><path
     d="  M 266 246 C 259 255, 251, 262, 240, 253  C 220 243, 283, 308, 266, 245"
     fill="rgb(250,249,154)"
     id="path81" /><path
     d="  M 351 290 C 354 296, 346, 310, 344, 318  C 336 317, 330, 315, 325, 313  C 330 304, 339, 299, 347, 293"
     fill="rgb(201,216,33)"
     id="path82" /><path
     d="  M 307 491 C 301 498, 294, 504, 288, 512  C 297 516, 305, 517, 312, 520  C 312 511, 309, 497, 309, 490"
     fill="rgb(235,232,69)"
     id="path83" /><path
     d="  M 233 437 C 233 446, 236, 457, 237, 465  C 246 458, 251, 453, 258, 448  C 250 443, 243, 439, 235, 438"
     fill="rgb(236,234,84)"
     id="path84" /><path
     d="  M 361 219 C 351 227, 320, 226, 330, 241  C 342 250, 349, 221, 368, 225"
     fill="rgb(140,191,54)"
     id="path85" /><path
     d="  M 183 398 C 178 409, 193, 430, 173, 429  C 175 436, 180, 438, 183, 441  C 179 428, 189, 426, 189, 423  C 197 421, 208, 419, 209, 426  C 202 453, 181, 423, 193, 437  C 200 437, 207, 433, 212, 429  C 211 420, 208, 415, 205, 410  C 192 406, 194, 421, 186, 422  C 185 413, 186, 402, 185, 398"
     fill="rgb(160,180,25)"
     id="path86" /><path
     d="  M 369 250 C 360 251, 356, 257, 354, 265  C 358 271, 366, 273, 371, 275  C 380 267, 372, 258, 371, 250"
     fill="rgb(228,214,24)"
     id="path87" /><path
     d="  M 308 421 C 316 432, 317, 452, 289, 454  C 297 456, 305, 456, 302, 465  C 310 458, 314, 445, 323, 444  C 308 443, 330, 420, 316, 423"
     fill="rgb(11,71,80)"
     id="path88" /><path
     d="  M 167 309 C 170 327, 162, 349, 170, 367  C 172 348, 176, 321, 171, 307"
     fill="rgb(238,226,97)"
     id="path89" /><path
     d="  M 254 488 C 260 495, 251, 510, 248, 517  C 242 511, 237, 507, 234, 502  C 241 497, 246, 494, 252, 491"
     fill="rgb(223,209,25)"
     id="path90" /><path
     d="  M 116 157 C 80 162, 117, 186, 129, 165  C 127 161, 120, 160, 116, 156"
     fill="rgb(248,250,243)"
     id="path91" /><path
     d="  M 246 284 C 251 293, 263, 295, 270, 302  C 257 302, 250, 313, 239, 320  C 248 321, 253, 324, 260, 325  C 262 316, 264, 308, 273, 304  C 264 296, 254, 293, 247, 286"
     fill="rgb(102,143,22)"
     id="path92" /><path
     d="  M 347 451 C 341 458, 334, 464, 329, 470  C 320 468, 306, 473, 305, 465  C 306 479, 320, 486, 333, 491  C 333 484, 330, 479, 329, 473  C 335 464, 341, 459, 346, 453"
     fill="rgb(89,145,40)"
     id="path93" /><path
     d="  M 468 411 C 466 420, 467, 426, 476, 428  C 483 431, 485, 426, 490, 426  C 491 419, 491, 417, 490, 412  C 483 414, 476, 420, 470, 412"
     fill="rgb(238,206,170)"
     id="path94" /><path
     d="  M 191 191 C 180 200, 192, 201, 196, 210  C 190 212, 184, 212, 179, 212  C 184 212, 190, 212, 196, 212  C 196 218, 183, 223, 192, 227  C 187 199, 212, 231, 212, 213  C 205 205, 198, 199, 192, 194"
     fill="rgb(228,216,98)"
     id="path95" /><path
     d="  M 216 271 C 211 296, 236, 286, 246, 278  C 237 275, 228, 272, 219, 273"
     fill="rgb(15,72,83)"
     id="path96" /><path
     d="  M 351 292 C 343 299, 332, 303, 326, 311  C 331 314, 337, 318, 343, 318  C 346 309, 349, 301, 351, 293"
     fill="rgb(210,222,31)"
     id="path97" /><path
     d="  M 203 345 C 210 346, 224, 351, 221, 362  C 208 367, 195, 359, 202, 347"
     fill="rgb(164,176,177)"
     id="path98" /><path
     d="  M 392 466 C 393 472, 383, 483, 379, 490  C 372 488, 372, 482, 366, 480  C 373 473, 381, 471, 389, 468"
     fill="rgb(134,187,44)"
     id="path99" /><path
     d="  M 216 253 C 214 258, 214, 264, 211, 269  C 193 266, 198, 248, 167, 256  C 190 248, 193, 261, 206, 272  C 201 274, 195, 276, 190, 276  C 186 283, 188, 294, 185, 300  C 197 295, 207, 291, 217, 287  C 206 290, 197, 295, 187, 299  C 188 293, 188, 286, 189, 280  C 196 275, 212, 276, 207, 269  C 216 270, 221, 271, 227, 270  C 224 262, 227, 253, 217, 253"
     fill="rgb(100,147,49)"
     id="path100" /><path
     d="  M 235 262 C 238 272, 255, 285, 269, 295  C 266 280, 274, 274, 284, 267  C 278 271, 273, 279, 266, 280  C 255 266, 231, 276, 236, 262"
     fill="rgb(168,184,17)"
     id="path101" /><path
     d="  M 216 289 C 207 293, 199, 296, 190, 300  C 197 305, 202, 309, 209, 310  C 209 301, 216, 296, 218, 289"
     fill="rgb(227,209,14)"
     id="path102" /><path
     d="  M 255 490 C 249 493, 243, 497, 237, 500  C 238 507, 242, 510, 245, 514  C 252 509, 255, 500, 256, 491"
     fill="rgb(235,216,26)"
     id="path103" /><path
     d="  M 320 447 C 316 453, 312, 460, 307, 466  C 314 467, 320, 468, 327, 469  C 326 456, 331, 459, 320, 452  C 333 450, 338, 449, 321, 448"
     fill="rgb(239,229,63)"
     id="path104" /><path
     d="  M 310 491 C 308 498, 314, 509, 314, 518  C 320 510, 324, 502, 326, 497  C 321 493, 317, 493, 313, 491"
     fill="rgb(214,224,41)"
     id="path105" /><path
     d="  M 488 168 C 478 171, 467, 178, 474, 188  C 483 186, 498, 178, 489, 166"
     fill="rgb(233,196,165)"
     id="path106" /><path
     d="  M 190 421 C 188 427, 192, 434, 193, 438  C 200 437, 203, 433, 207, 431  C 210 420, 199, 422, 193, 421"
     fill="rgb(219,214,26)"
     id="path107" /><path
     d="  M 168 431 C 167 440, 163, 460, 171, 466  C 169 451, 175, 434, 186, 450  C 180 442, 174, 438, 172, 432"
     fill="rgb(237,245,155)"
     id="path108" /><path
     d="  M 392 468 C 383 471, 375, 474, 367, 478  C 373 481, 373, 487, 378, 490  C 383 483, 387, 476, 391, 470"
     fill="rgb(143,193,42)"
     id="path109" /><path
     d="  M 233 424 C 227 435, 247, 435, 253, 439  C 252 428, 247, 421, 235, 425"
     fill="rgb(159,202,54)"
     id="path110" /><path
     d="  M 184 103 C 170 115, 186, 137, 179, 143  C 191 157, 204, 165, 218, 170  C 182 156, 219, 160, 180, 137  C 176 126, 177, 115, 182, 105"
     fill="rgb(130,153,172)"
     id="path111" /><path
     d="  M 175 212 C 181 213, 185, 218, 187, 223  C 200 231, 209, 242, 222, 246  C 219 230, 200, 233, 188, 226  C 189 220, 194, 217, 195, 213  C 189 213, 183, 213, 178, 213"
     fill="rgb(239,245,161)"
     id="path112" /><path
     d="  M 221 295 C 218 302, 211, 303, 213, 312  C 218 315, 223, 316, 227, 319  C 226 310, 225, 303, 222, 295"
     fill="rgb(30,96,61)"
     id="path113" /><path
     d="  M 281 66 C 269 66, 253, 70, 240, 70  C 220 77, 191, 86, 183, 108  C 196 87, 214, 81, 236, 74  C 281 61, 377, 71, 270, 64"
     fill="rgb(195,243,249)"
     id="path114" /><path
     d="  M 322 449 C 323 459, 334, 453, 327, 465  C 337 463, 338, 456, 343, 454  C 339 446, 331, 453, 325, 450"
     fill="rgb(234,220,43)"
     id="path115" /><path
     d="  M 335 421 C 346 424, 324, 437, 321, 440  C 319 429, 323, 422, 333, 423"
     fill="rgb(94,152,49)"
     id="path116" /><path
     d="  M 260 468 C 257 473, 255, 491, 244, 490  C 238 481, 251, 478, 255, 470"
     fill="rgb(18,80,75)"
     id="path117" /><path
     d="  M 197 497 C 211 506, 221, 516, 237, 520  C 235 515, 236, 510, 233, 505  C 220 523, 211, 499, 200, 497"
     fill="rgb(13,75,82)"
     id="path118" /><path
     d="  M 167 465 C 165 476, 175, 485, 183, 489  C 191 478, 176, 474, 169, 468"
     fill="rgb(55,102,104)"
     id="path119" /><path
     d="  M 381 215 C 388 214, 394, 219, 398, 223  C 391 234, 379, 228, 382, 217"
     fill="rgb(41,128,106)"
     id="path120" /><path
     d="  M 99 375 C 72 379, 104, 394, 110, 380  C 106 378, 103, 375, 100, 374"
     fill="rgb(248,251,215)"
     id="path121" /><path
     d="  M 382 423 C 400 432, 370, 437, 362, 433  C 368 429, 374, 427, 381, 426"
     fill="rgb(132,183,45)"
     id="path122" /><path
     d="  M 183 232 C 180 235, 177, 239, 175, 243  C 178 245, 182, 244, 185, 246  C 198 241, 191, 236, 184, 232"
     fill="rgb(196,211,35)"
     id="path123" /><path
     d="  M 206 206 C 226 215, 244, 224, 265, 234  C 260 241, 254, 242, 247, 245  C 253 243, 260, 241, 266, 238  C 255 218, 225, 220, 209, 205"
     fill="rgb(162,188,119)"
     id="path124" /><path
     d="  M 480 324 C 477 332, 480, 342, 490, 342  C 491 336, 488, 327, 496, 326  C 492 330, 487, 328, 483, 325"
     fill="rgb(158,194,37)"
     id="path125" /><path
     d="  M 404 252 C 407 257, 405, 266, 405, 271  C 411 266, 416, 264, 419, 260  C 414 256, 410, 254, 407, 252"
     fill="rgb(152,231,177)"
     id="path126" /><path
     d="  M 38 232 C 45 228, 52, 238, 47, 244  C 37 248, 33, 239, 37, 233"
     fill="rgb(154,188,190)"
     id="path127" /><path
     d="  M 113 155 C 103 159, 89, 164, 96, 179  C 104 186, 104, 186, 114, 191  C 106 185, 92, 181, 98, 165  C 109 151, 126, 157, 134, 168  C 127 159, 120, 157, 115, 154"
     fill="rgb(200,236,237)"
     id="path128" /><path
     d="  M 494 233 C 503 227, 510, 237, 503, 244  C 495 246, 492, 240, 494, 234"
     fill="rgb(154,189,189)"
     id="path129" /><path
     d="  M 249 288 C 251 293, 253, 299, 255, 304  C 250 311, 242, 315, 237, 320  C 244 303, 293, 305, 246, 290"
     fill="rgb(150,181,26)"
     id="path130" /><path
     d="  M 222 443 C 204 450, 201, 442, 201, 461  C 203 462, 208, 462, 211, 464  C 201 455, 214, 450, 218, 445"
     fill="rgb(15,74,74)"
     id="path131" /><path
     d="  M 113 264 C 103 265, 101, 273, 103, 283  C 109 280, 116, 274, 111, 265"
     fill="rgb(77,137,47)"
     id="path132" /><path
     d="  M 402 427 C 389 423, 395, 436, 395, 442  C 407 445, 401, 432, 403, 428"
     fill="rgb(10,75,80)"
     id="path133" /><path
     d="  M 471 155 C 461 159, 448, 164, 454, 181  C 461 184, 466, 189, 472, 191  C 464 186, 451, 181, 456, 166  C 467 150, 485, 159, 492, 168  C 487 161, 479, 157, 473, 154"
     fill="rgb(199,243,244)"
     id="path134" /><path
     d="  M 92 264 C 90 273, 93, 281, 101, 281  C 101 274, 101, 266, 109, 265  C 104 269, 98, 269, 93, 264"
     fill="rgb(152,195,42)"
     id="path135" /><path
     d="  M 479 403 C 476 406, 471, 408, 468, 410  C 475 422, 502, 407, 478, 405"
     fill="rgb(247,251,217)"
     id="path136" /><path
     d="  M 258 469 C 253 476, 242, 481, 241, 488  C 257 489, 251, 478, 260, 470"
     fill="rgb(16,77,78)"
     id="path137" /><path
     d="  M 108 420 C 114 418, 123, 419, 119, 428  C 114 435, 105, 428, 109, 423"
     fill="rgb(152,183,184)"
     id="path138" /><path
     d="  M 165 377 C 166 392, 166, 408, 165, 423  C 168 410, 167, 395, 167, 382  C 180 393, 172, 408, 185, 394  C 171 395, 179, 380, 168, 378"
     fill="rgb(224,240,153)"
     id="path139" /><path
     d="  M 398 251 C 402 263, 400, 273, 389, 279  C 406 277, 402, 263, 402, 251"
     fill="rgb(88,159,63)"
     id="path140" /><path
     d="  M 186 445 C 192 456, 161, 467, 184, 472  C 187 464, 184, 455, 187, 447"
     fill="rgb(156,193,34)"
     id="path141" /><path
     d="  M 199 215 C 185 220, 190, 230, 202, 228  C 198 222, 209, 220, 199, 216"
     fill="rgb(152,178,20)"
     id="path142" /><path
     d="  M 242 426 C 207 423, 269, 428, 259, 442  C 259 429, 251, 425, 245, 422"
     fill="rgb(78,137,44)"
     id="path143" /><path
     d="  M 205 349 C 201 359, 210, 361, 217, 362  C 219 352, 211, 351, 207, 350"
     fill="rgb(248,250,237)"
     id="path144" /><path
     d="  M 253 230 C 241 246, 256, 245, 264, 234  C 260 233, 257, 231, 254, 231"
     fill="rgb(199,214,147)"
     id="path145" /><path
     d="  M 268 422 C 273 435, 253, 446, 268, 458  C 265 454, 268, 431, 272, 423"
     fill="rgb(11,74,74)"
     id="path146" /><path
     d="  M 384 426 C 376 427, 369, 429, 363, 432  C 370 431, 391, 437, 386, 424"
     fill="rgb(144,192,46)"
     id="path147" /><path
     d="  M 272 459 C 269 462, 266, 465, 271, 460  C 281 460, 290, 459, 298, 459  C 292 470, 284, 477, 277, 484  C 270 483, 263, 483, 258, 480  C 260 474, 263, 470, 266, 467  C 263 470, 260, 474, 258, 477  C 259 481, 258, 482, 260, 483  C 267 487, 273, 490, 279, 493  C 273 480, 295, 472, 299, 461  C 290 459, 282, 459, 273, 459"
     fill="rgb(153,166,22)"
     id="path148" /><path
     d="  M 386 258 C 381 264, 377, 270, 374, 276  C 365 275, 359, 273, 353, 269  C 361 274, 364, 284, 374, 287  C 368 275, 380, 269, 385, 260"
     fill="rgb(85,139,37)"
     id="path149" /><path
     d="  M 176 223 C 184 235, 164, 235, 166, 239  C 173 248, 177, 231, 182, 230  C 188 232, 192, 235, 196, 237  C 195 243, 191, 244, 189, 248  C 191 244, 195, 244, 197, 239  C 192 234, 188, 232, 184, 229  C 181 229, 180, 226, 178, 226"
     fill="rgb(245,249,174)"
     id="path150" /><path
     d="  M 167 248 C 165 259, 182, 251, 188, 254  C 184 245, 175, 250, 170, 247"
     fill="rgb(43,96,68)"
     id="path151" /><path
     d="  M 304 467 C 303 474, 304, 480, 306, 486  C 313 487, 318, 489, 323, 490  C 314 486, 306, 480, 305, 469"
     fill="rgb(12,69,78)"
     id="path152" /><path
     d="  M 502 325 C 501 331, 489, 325, 494, 343  C 501 340, 505, 335, 502, 326"
     fill="rgb(58,123,58)"
     id="path153" /><path
     d="  M 193 496 C 196 499, 215, 498, 219, 515  C 214 510, 230, 512, 231, 503  C 236 509, 236, 515, 239, 520  C 236 514, 236, 508, 233, 502  C 218 518, 208, 488, 192, 494"
     fill="rgb(32,99,64)"
     id="path154" /><path
     d="  M 186 200 C 170 211, 183, 212, 194, 210  C 191 206, 188, 204, 187, 200"
     fill="rgb(163,183,25)"
     id="path155" /><path
     d="  M 219 214 C 217 217, 213, 220, 215, 225  C 223 228, 230, 213, 220, 214"
     fill="rgb(250,247,214)"
     id="path156" /><path
     d="  M 41 233 C 33 234, 36, 247, 44, 243  C 50 240, 46, 231, 43, 233"
     fill="rgb(207,250,251)"
     id="path157" /><path
     d="  M 386 273 C 380 275, 375, 277, 377, 284  C 385 285, 389, 280, 387, 272"
     fill="rgb(10,83,73)"
     id="path158" /><path
     d="  M 166 363 C 164 369, 165, 378, 173, 378  C 173 372, 176, 367, 168, 365"
     fill="rgb(137,170,115)"
     id="path159" /><path
     d="  M 329 69 C 353 73, 383, 80, 401, 102  C 388 81, 359, 74, 335, 69"
     fill="rgb(198,244,249)"
     id="path160" /><path
     d="  M 97 371 C 92 376, 85, 375, 84, 383  C 81 397, 89, 400, 96, 403  C 90 400, 79, 392, 87, 380  C 96 370, 107, 374, 113, 382  C 110 376, 106, 373, 99, 372"
     fill="rgb(200,235,230)"
     id="path161" /><path
     d="  M 401 233 C 392 236, 396, 241, 397, 249  C 407 250, 400, 239, 402, 234"
     fill="rgb(11,82,83)"
     id="path162" /><path
     d="  M 390 191 C 385 193, 380, 194, 375, 196  C 380 209, 387, 194, 391, 191"
     fill="rgb(25,103,79)"
     id="path163" /><path
     d="  M 385 216 C 382 225, 388, 231, 396, 225  C 394 220, 390, 219, 387, 217"
     fill="rgb(23,100,78)"
     id="path164" /><path
     d="  M 357 482 C 371 477, 353, 499, 349, 488  C 350 485, 352, 483, 356, 484"
     fill="rgb(117,180,48)"
     id="path165" /><path
     d="  M 218 234 C 224 254, 233, 242, 238, 251  C 237 242, 225, 243, 221, 235"
     fill="rgb(88,145,56)"
     id="path166" /><path
     d="  M 285 290 C 290 289, 277, 304, 274, 302  C 271 294, 281, 294, 282, 291"
     fill="rgb(16,81,68)"
     id="path167" /><path
     d="  M 191 190 C 196 193, 201, 199, 206, 202  C 216 194, 198, 194, 194, 189"
     fill="rgb(144,168,20)"
     id="path168" /><path
     d="  M 492 319 C 488 320, 486, 323, 482, 323  C 487 332, 507, 322, 493, 319"
     fill="rgb(238,241,106)"
     id="path169" /><path
     d="  M 400 99 C 406 106, 411, 117, 407, 128  C 400 144, 385, 154, 372, 160  C 334 177, 283, 174, 261, 183  C 284 177, 333, 176, 370, 161  C 382 155, 393, 150, 401, 139  C 405 135, 405, 132, 407, 129  C 411 117, 407, 107, 401, 100"
     fill="rgb(147,156,159)"
     id="path170" /><path
     d="  M 192 260 C 190 264, 190, 269, 188, 273  C 193 274, 196, 272, 201, 273  C 199 269, 193, 266, 191, 262"
     fill="rgb(206,189,15)"
     id="path171" /><path
     d="  M 189 402 C 189 407, 189, 412, 189, 418  C 191 411, 204, 403, 190, 403"
     fill="rgb(31,97,48)"
     id="path172" /><path
     d="  M 275 307 C 272 313, 266, 318, 265, 324  C 268 320, 276, 317, 277, 308"
     fill="rgb(11,88,78)"
     id="path173" /><path
     d="  M 175 447 C 176 452, 176, 457, 175, 461  C 183 457, 186, 451, 177, 448"
     fill="rgb(189,222,44)"
     id="path174" /><path
     d="  M 168 287 C 167 293, 168, 297, 168, 304  C 173 295, 180, 294, 169, 289"
     fill="rgb(83,112,93)"
     id="path175" /><path
     d="  M 475 403 C 465 405, 462, 414, 466, 424  C 468 429, 474, 428, 477, 432  C 461 430, 463, 403, 479, 403"
     fill="rgb(202,232,221)"
     id="path176" /><path
     d="  M 415 434 C 430 434, 409, 445, 406, 446  C 408 442, 410, 439, 414, 438"
     fill="rgb(116,225,187)"
     id="path177" /><path
     d="  M 238 260 C 235 269, 236, 273, 245, 267  C 250 263, 242, 261, 240, 261"
     fill="rgb(204,210,23)"
     id="path178" /><path
     d="  M 103 260 C 84 261, 104, 272, 109, 263  C 108 260, 105, 261, 103, 260"
     fill="rgb(234,236,105)"
     id="path179" /><path
     d="  M 165 309 C 164 327, 164, 345, 166, 361  C 163 344, 168, 327, 166, 310"
     fill="rgb(213,233,157)"
     id="path180" /><path
     d="  M 267 243 C 253 260, 242, 243, 239, 251  C 249 259, 258, 253, 264, 245"
     fill="rgb(158,186,52)"
     id="path181" /><path
     d="  M 194 465 C 197 467, 189, 476, 188, 480  C 185 474, 189, 471, 192, 467"
     fill="rgb(25,79,71)"
     id="path182" /><path
     d="  M 406 104 C 412 112, 417, 120, 419, 130  C 421 119, 414, 112, 409, 104"
     fill="rgb(44,129,170)"
     id="path183" /><path
     d="  M 363 200 C 360 201, 355, 202, 357, 207  C 361 208, 370, 202, 365, 199"
     fill="rgb(75,157,142)"
     id="path184" /><path
     d="  M 183 425 C 194 447, 181, 485, 176, 468  C 196 449, 186, 444, 187, 425"
     fill="rgb(93,147,50)"
     id="path185" /><path
     d="  M 213 250 C 210 266, 200, 247, 209, 264  C 199 264, 201, 252, 197, 255  C 200 260, 205, 263, 208, 267  C 211 262, 212, 257, 213, 252"
     fill="rgb(238,247,186)"
     id="path186" /><path
     d="  M 330 296 C 337 295, 328, 303, 327, 305  C 320 301, 325, 299, 329, 297"
     fill="rgb(17,78,68)"
     id="path187" /><path
     d="  M 175 308 C 174 325, 175, 347, 174, 365  C 176 348, 176, 328, 175, 310"
     fill="rgb(247,242,175)"
     id="path188" /><path
     d="  M 228 221 C 235 225, 243, 227, 251, 229  C 248 221, 237, 225, 231, 220"
     fill="rgb(194,209,122)"
     id="path189" /><path
     d="  M 334 426 C 327 427, 321, 427, 322, 436  C 326 433, 329, 431, 332, 427"
     fill="rgb(133,186,45)"
     id="path190" /><path
     d="  M 359 483 C 356 485, 351, 484, 349, 487  C 353 496, 364, 483, 361, 482"
     fill="rgb(122,185,45)"
     id="path191" /><path
     d="  M 496 230 C 492 260, 502, 219, 502, 244  C 507 240, 505, 231, 498, 233"
     fill="rgb(196,250,254)"
     id="path192" /><path
     d="  M 362 200 C 371 197, 364, 208, 360, 207  C 357 204, 358, 202, 361, 201"
     fill="rgb(83,166,150)"
     id="path193" /><path
     d="  M 188 97 C 179 103, 173, 109, 169, 120  C 173 111, 181, 106, 186, 98"
     fill="rgb(85,155,189)"
     id="path194" /><path
     d="  M 285 290 C 283 294, 273, 294, 273, 300  C 279 302, 281, 293, 286, 292"
     fill="rgb(11,78,71)"
     id="path195" /><path
     d="  M 278 310 C 277 316, 270, 321, 269, 324  C 273 316, 285, 321, 277, 311"
     fill="rgb(32,100,63)"
     id="path196" /><path
     d="  M 38 235 C 53 231, 41, 251, 38, 237"
     fill="rgb(224,252,249)"
     id="path197" /><path
     d="  M 338 422 C 296 438, 357, 417, 315, 441  C 327 434, 336, 428, 338, 423"
     fill="rgb(87,147,52)"
     id="path198" /><path
     d="  M 235 241 C 239 241, 241, 256, 247, 245  C 244 247, 242, 238, 237, 241"
     fill="rgb(194,210,112)"
     id="path199" /><path
     d="  M 111 420 C 106 425, 113, 435, 118, 428  C 120 408, 111, 443, 111, 419"
     fill="rgb(195,249,253)"
     id="path200" /></svg>
