<?xml version="1.0" encoding="UTF-8" standalone="no"?>
<!-- Created with Inkscape (http://www.inkscape.org/) -->

<svg
   width="75.739075mm"
   height="156.6662mm"
   viewBox="0 0 75.739075 156.6662"
   version="1.1"
   id="svg1"
   xml:space="preserve"
   inkscape:version="1.3 (1:1.3+202307231459+0e150ed6c4)"
   sodipodi:docname="rlish.svg"
   xmlns:inkscape="http://www.inkscape.org/namespaces/inkscape"
   xmlns:sodipodi="http://sodipodi.sourceforge.net/DTD/sodipodi-0.dtd"
   xmlns="http://www.w3.org/2000/svg"
   xmlns:svg="http://www.w3.org/2000/svg"><sodipodi:namedview
     id="namedview1"
     pagecolor="#ffffff"
     bordercolor="#000000"
     borderopacity="0.25"
     inkscape:showpageshadow="2"
     inkscape:pageopacity="0.0"
     inkscape:pagecheckerboard="0"
     inkscape:deskcolor="#d1d1d1"
     inkscape:document-units="mm"
     inkscape:zoom="0.5140214"
     inkscape:cx="-422.16141"
     inkscape:cy="250.96232"
     inkscape:window-width="1850"
     inkscape:window-height="1016"
     inkscape:window-x="70"
     inkscape:window-y="27"
     inkscape:window-maximized="1"
     inkscape:current-layer="layer1" /><defs
     id="defs1" /><g
     inkscape:label="Layer 1"
     inkscape:groupmode="layer"
     id="layer1"
     transform="translate(-64.700498,-58.350486)"><path
       style="fill:#57cd54;fill-opacity:1;stroke:#000000;stroke-width:4;stroke-linejoin:round;stroke-miterlimit:9;stroke-dasharray:none;stroke-opacity:0.964223"
       d="m 85.588003,71.10491 -1.700826,21.237453 -9.123201,22.664877 -8.063479,16.59157 0.867608,63.56794 4.279509,12.08941 8.341389,5.76052 47.280177,-0.20783 8.997,-9.90392 1.97339,-15.42687 -0.50236,-54.8611 -4.42057,-11.80318 -9.77071,-19.47487 -3.12088,-11.385303 -0.77198,-21.154197 -33.809161,-0.637005 z"
       id="path1" /><path
       style="fill:#b1cad2;fill-opacity:1;stroke:#000000;stroke-width:4;stroke-linejoin:round;stroke-miterlimit:9;stroke-dasharray:none;stroke-opacity:0.964223"
       d="m 82.263095,62.291869 c -1.007916,1.082208 -1.968899,2.42074 -2.604709,3.85112 -0.635809,1.43038 -0.946444,2.952609 -0.653666,4.402213 0.259752,1.286083 0.980461,2.709396 1.964138,3.80283 0.983678,1.093435 2.230324,1.856991 3.541949,1.823559 6.848719,-0.174564 13.09019,-0.190012 18.981893,-0.165668 5.89171,0.02434 11.43365,0.08848 16.88331,0.07308 0.91484,-0.0026 1.8895,-0.257285 2.75326,-0.707371 0.86376,-0.450085 1.61663,-1.095555 2.08788,-1.879682 0.55571,-0.924655 0.72397,-2.029168 0.67101,-3.159353 -0.0529,-1.130186 -0.32713,-2.286043 -0.65631,-3.313388 -0.38181,-1.19159 -0.85232,-2.667909 -1.53925,-3.870626 -0.68693,-1.202717 -1.59028,-2.131832 -2.83777,-2.229014 -5.58529,-0.435107 -11.0056,-0.558791 -16.66954,-0.567515 -5.663932,-0.0087 -11.571482,0.09752 -18.131229,0.122253 -0.700689,0.0026 -1.409654,0.200657 -2.062835,0.5262 -0.653181,0.325542 -1.250578,0.778612 -1.728131,1.291364 z"
       id="path2"
       sodipodi:nodetypes="sssssssssssssssss" /><path
       style="fill:#ffffff;fill-opacity:1;stroke:#000000;stroke-width:4;stroke-linejoin:round;stroke-miterlimit:9;stroke-dasharray:none;stroke-opacity:0.964223"
       d="m 66.848799,142.46461 c -0.06801,-4.98328 9.923496,2.71873 14.834094,1.86798 2.723352,-0.47181 4.883381,-2.59775 7.39884,-3.74305 2.446135,-1.11374 4.835149,-2.50373 7.469484,-3.03689 3.981703,-0.80586 8.185053,-0.86394 12.186243,-0.16119 4.32637,0.75986 8.66291,2.23371 12.32863,4.65392 1.03149,0.68102 1.39588,2.28088 2.56713,2.67574 4.60237,1.55156 14.34965,-7.11753 14.39412,-2.26087 0.16105,17.58726 0.16105,17.58726 0.34338,37.49939 0.0442,4.82799 -9.45849,-3.6558 -14.21077,-2.80301 -2.36222,0.4239 -3.95346,2.76991 -6.13856,3.76243 -4.14032,1.88063 -8.49662,3.61546 -13.02139,4.06876 -3.4055,0.34117 -6.893889,-0.22249 -10.213054,-1.05733 -3.709404,-0.933 -7.302788,-2.44542 -10.614638,-4.35901 -1.51839,-0.87733 -2.447871,-2.84718 -4.161825,-3.21809 -4.237492,-0.91701 -12.599173,7.32543 -12.658341,2.99025 -0.217841,-15.96086 -0.332893,-24.39046 -0.503343,-36.87903 z"
       id="path3"
       sodipodi:nodetypes="saaaaaassaaaaaass" /><text
       xml:space="preserve"
       style="font-size:21.1667px;line-height:23.1428px;font-family:Arial;-inkscape-font-specification:Arial;fill:#000000;fill-opacity:1;stroke:#000000;stroke-width:2;stroke-linejoin:round;stroke-miterlimit:9;stroke-dasharray:none;stroke-opacity:1"
       x="76.01384"
       y="168.74615"
       id="text3"><tspan
         sodipodi:role="line"
         id="tspan3"
         style="font-style:normal;font-variant:normal;font-weight:normal;font-stretch:normal;font-size:21.1667px;line-height:23.1428px;font-family:Laksaman;-inkscape-font-specification:Laksaman;fill:#000000;fill-opacity:1;stroke:#000000;stroke-width:2;stroke-dasharray:none;stroke-opacity:1"
         x="76.01384"
         y="168.74615">RLISH</tspan></text></g></svg>
